<svg width="851" height="219" viewBox="0 0 851 219" fill="none" xmlns="http://www.w3.org/2000/svg">
<mask id="path-1-outside-1_22_73" maskUnits="userSpaceOnUse" x="0" y="0.166107" width="851" height="219" fill="black">
<rect fill="white" y="0.166107" width="851" height="219"/>
<path d="M135.438 169.46V216.166H3.06771V3.55542H131.01V50.1505H68.6992V86.4526H118.836V133.158H68.6992V169.46H135.438ZM248.107 72.0645L240.691 133.158H255.411L248.107 72.0645ZM235.047 179.864L230.73 216.166H165.099L206.714 3.55542H289.389L331.004 216.166H265.483L261.056 179.864H235.047ZM422.977 50.1505V91.101H428.51C431.093 91.101 433.27 90.2156 435.04 88.4447C436.811 86.6001 437.697 84.4235 437.697 81.9148V59.3367C437.697 56.828 436.811 54.6882 435.04 52.9174C433.27 51.0728 431.093 50.1505 428.51 50.1505H422.977ZM422.977 137.696V216.166H357.345V3.55542H447.658C457.914 3.55542 467.247 6.0641 475.659 11.0815C484.07 16.025 490.785 22.7026 495.802 31.114C500.819 39.5255 503.328 48.8592 503.328 59.1153V82.1362C503.328 90.3263 501.631 97.963 498.237 105.046C494.917 112.13 490.379 118.254 484.624 123.419L511.076 216.166H445.444L423.087 137.696H422.977ZM571.727 216.166V50.1505H531.993V3.55542H677.202V50.1505H637.358V216.166H571.727ZM768.289 118.217V216.166H702.658V3.55542H768.289V101.394H782.566V3.55542H848.198V216.166H782.566V118.217H768.289Z"/>
</mask>
<path d="M135.438 169.46H138.178V166.72H135.438V169.46ZM135.438 216.166V218.907H138.178V216.166H135.438ZM3.06771 216.166H0.327224V218.907H3.06771V216.166ZM3.06771 3.55542V0.814934H0.327224V3.55542H3.06771ZM131.01 3.55542H133.751V0.814934H131.01V3.55542ZM131.01 50.1505V52.891H133.751V50.1505H131.01ZM68.6992 50.1505V47.41H65.9587V50.1505H68.6992ZM68.6992 86.4526H65.9587V89.193H68.6992V86.4526ZM118.836 86.4526H121.576V83.7121H118.836V86.4526ZM118.836 133.158V135.899H121.576V133.158H118.836ZM68.6992 133.158V130.418H65.9587V133.158H68.6992ZM68.6992 169.46H65.9587V172.201H68.6992V169.46ZM132.697 169.46V216.166H138.178V169.46H132.697ZM135.438 213.426H3.06771V218.907H135.438V213.426ZM5.80819 216.166V3.55542H0.327224V216.166H5.80819ZM3.06771 6.2959H131.01V0.814934H3.06771V6.2959ZM128.27 3.55542V50.1505H133.751V3.55542H128.27ZM131.01 47.41H68.6992V52.891H131.01V47.41ZM65.9587 50.1505V86.4526H71.4397V50.1505H65.9587ZM68.6992 89.193H118.836V83.7121H68.6992V89.193ZM116.095 86.4526V133.158H121.576V86.4526H116.095ZM118.836 130.418H68.6992V135.899H118.836V130.418ZM65.9587 133.158V169.46H71.4397V133.158H65.9587ZM68.6992 172.201H135.438V166.72H68.6992V172.201ZM248.107 72.0645L250.828 71.7392L245.386 71.7343L248.107 72.0645ZM240.691 133.158L237.971 132.828L237.598 135.899H240.691V133.158ZM255.411 133.158V135.899H258.499L258.133 132.833L255.411 133.158ZM235.047 179.864V177.124H232.613L232.326 179.54L235.047 179.864ZM230.73 216.166V218.907H233.164L233.452 216.49L230.73 216.166ZM165.099 216.166L162.41 215.64L161.77 218.907H165.099V216.166ZM206.714 3.55542V0.814934H204.457L204.024 3.02901L206.714 3.55542ZM289.389 3.55542L292.079 3.02901L291.645 0.814934H289.389V3.55542ZM331.004 216.166V218.907H334.333L333.693 215.64L331.004 216.166ZM265.483 216.166L262.763 216.498L263.056 218.907H265.483V216.166ZM261.056 179.864L263.776 179.532L263.483 177.124H261.056V179.864ZM245.386 71.7343L237.971 132.828L243.412 133.489L250.827 72.3948L245.386 71.7343ZM240.691 135.899H255.411V130.418H240.691V135.899ZM258.133 132.833L250.828 71.7392L245.386 72.3899L252.69 133.484L258.133 132.833ZM232.326 179.54L228.009 215.843L233.452 216.49L237.768 180.188L232.326 179.54ZM230.73 213.426H165.099V218.907H230.73V213.426ZM167.788 216.693L209.403 4.08183L204.024 3.02901L162.41 215.64L167.788 216.693ZM206.714 6.2959H289.389V0.814934H206.714V6.2959ZM286.7 4.08183L328.314 216.693L333.693 215.64L292.079 3.02901L286.7 4.08183ZM331.004 213.426H265.483V218.907H331.004V213.426ZM268.203 215.834L263.776 179.532L258.336 180.196L262.763 216.498L268.203 215.834ZM261.056 177.124H235.047V182.605H261.056V177.124ZM422.977 50.1505V47.41H420.236V50.1505H422.977ZM422.977 91.101H420.236V93.8415H422.977V91.101ZM435.04 88.4447L436.978 90.3826L436.998 90.3628L437.017 90.3426L435.04 88.4447ZM435.04 52.9174L433.063 54.8153L433.083 54.8354L433.103 54.8552L435.04 52.9174ZM422.977 137.696V134.956H420.236V137.696H422.977ZM422.977 216.166V218.907H425.717V216.166H422.977ZM357.345 216.166H354.605V218.907H357.345V216.166ZM357.345 3.55542V0.814934H354.605V3.55542H357.345ZM475.659 11.0815L474.255 13.435L474.263 13.4396L474.27 13.4441L475.659 11.0815ZM498.237 105.046L495.766 103.862L495.761 103.873L495.756 103.883L498.237 105.046ZM484.624 123.419L482.793 121.379L481.519 122.523L481.988 124.17L484.624 123.419ZM511.076 216.166V218.907H514.707L513.711 215.414L511.076 216.166ZM445.444 216.166L442.808 216.917L443.375 218.907H445.444V216.166ZM423.087 137.696L425.723 136.945L425.156 134.956H423.087V137.696ZM420.236 50.1505V91.101H425.717V50.1505H420.236ZM422.977 93.8415H428.51V88.3605H422.977V93.8415ZM428.51 93.8415C431.794 93.8415 434.676 92.685 436.978 90.3826L433.103 86.5069C431.863 87.7462 430.391 88.3605 428.51 88.3605V93.8415ZM437.017 90.3426C439.268 87.9986 440.437 85.146 440.437 81.9148H434.956C434.956 83.701 434.355 85.2016 433.063 86.5469L437.017 90.3426ZM440.437 81.9148V59.3367H434.956V81.9148H440.437ZM440.437 59.3367C440.437 56.1026 439.264 53.2654 436.978 50.9796L433.103 54.8552C434.358 56.1111 434.956 57.5534 434.956 59.3367H440.437ZM437.017 51.0195C434.724 48.6306 431.831 47.41 428.51 47.41V52.891C430.355 52.891 431.815 53.515 433.063 54.8153L437.017 51.0195ZM428.51 47.41H422.977V52.891H428.51V47.41ZM420.236 137.696V216.166H425.717V137.696H420.236ZM422.977 213.426H357.345V218.907H422.977V213.426ZM360.086 216.166V3.55542H354.605V216.166H360.086ZM357.345 6.2959H447.658V0.814934H357.345V6.2959ZM447.658 6.2959C457.444 6.2959 466.288 8.68308 474.255 13.435L477.063 8.72788C468.206 3.44511 458.384 0.814934 447.658 0.814934V6.2959ZM474.27 13.4441C482.283 18.1533 488.666 24.5005 493.449 32.5179L498.156 29.7101C492.903 20.9046 485.858 13.8967 477.047 8.71881L474.27 13.4441ZM493.449 32.5179C498.2 40.4844 500.588 49.3292 500.588 59.1153H506.069C506.069 48.3893 503.438 38.5665 498.156 29.7101L493.449 32.5179ZM500.588 59.1153V82.1362H506.069V59.1153H500.588ZM500.588 82.1362C500.588 89.9344 498.975 97.1643 495.766 103.862L500.708 106.231C504.287 98.7617 506.069 90.7182 506.069 82.1362H500.588ZM495.756 103.883C492.589 110.638 488.272 116.463 482.793 121.379L486.454 125.458C492.486 120.045 497.244 113.622 500.718 106.209L495.756 103.883ZM481.988 124.17L508.44 216.918L513.711 215.414L487.259 122.667L481.988 124.17ZM511.076 213.426H445.444V218.907H511.076V213.426ZM448.08 215.415L425.723 136.945L420.452 138.447L442.808 216.917L448.08 215.415ZM423.087 134.956H422.977V140.437H423.087V134.956ZM571.727 216.166H568.986V218.907H571.727V216.166ZM571.727 50.1505H574.467V47.41H571.727V50.1505ZM531.993 50.1505H529.253V52.891H531.993V50.1505ZM531.993 3.55542V0.814934H529.253V3.55542H531.993ZM677.202 3.55542H679.942V0.814934H677.202V3.55542ZM677.202 50.1505V52.891H679.942V50.1505H677.202ZM637.358 50.1505V47.41H634.618V50.1505H637.358ZM637.358 216.166V218.907H640.099V216.166H637.358ZM574.467 216.166V50.1505H568.986V216.166H574.467ZM571.727 47.41H531.993V52.891H571.727V47.41ZM534.734 50.1505V3.55542H529.253V50.1505H534.734ZM531.993 6.2959H677.202V0.814934H531.993V6.2959ZM674.461 3.55542V50.1505H679.942V3.55542H674.461ZM677.202 47.41H637.358V52.891H677.202V47.41ZM634.618 50.1505V216.166H640.099V50.1505H634.618ZM637.358 213.426H571.727V218.907H637.358V213.426ZM768.289 118.217V115.476H765.549V118.217H768.289ZM768.289 216.166V218.907H771.03V216.166H768.289ZM702.658 216.166H699.917V218.907H702.658V216.166ZM702.658 3.55542V0.814934H699.917V3.55542H702.658ZM768.289 3.55542H771.03V0.814934H768.289V3.55542ZM768.289 101.394H765.549V104.134H768.289V101.394ZM782.566 101.394V104.134H785.307V101.394H782.566ZM782.566 3.55542V0.814934H779.826V3.55542H782.566ZM848.198 3.55542H850.938V0.814934H848.198V3.55542ZM848.198 216.166V218.907H850.938V216.166H848.198ZM782.566 216.166H779.826V218.907H782.566V216.166ZM782.566 118.217H785.307V115.476H782.566V118.217ZM765.549 118.217V216.166H771.03V118.217H765.549ZM768.289 213.426H702.658V218.907H768.289V213.426ZM705.398 216.166V3.55542H699.917V216.166H705.398ZM702.658 6.2959H768.289V0.814934H702.658V6.2959ZM765.549 3.55542V101.394H771.03V3.55542H765.549ZM768.289 104.134H782.566V98.6535H768.289V104.134ZM785.307 101.394V3.55542H779.826V101.394H785.307ZM782.566 6.2959H848.198V0.814934H782.566V6.2959ZM845.457 3.55542V216.166H850.938V3.55542H845.457ZM848.198 213.426H782.566V218.907H848.198V213.426ZM785.307 216.166V118.217H779.826V216.166H785.307ZM782.566 115.476H768.289V120.957H782.566V115.476Z" fill="white" mask="url(#path-1-outside-1_22_73)"/>
</svg>
